<svg width="68" height="23" viewBox="0 0 68 23" fill="none" xmlns="http://www.w3.org/2000/svg">
<path fill-rule="evenodd" clip-rule="evenodd" d="M68 3C50.9804 3 34.0167 3 17 3C17 2.33729 17 1.6794 17 1C33.9826 1 50.9779 1 68 1C68 1.66651 68 2.33154 68 3Z" fill="black"/>
<path fill-rule="evenodd" clip-rule="evenodd" d="M17 12C17 11.3236 17 10.6698 17 10C34.0027 10 50.9746 10 68 10C68 10.655 68 11.3165 68 12C51.0279 12 34.0405 12 17 12Z" fill="black"/>
<path fill-rule="evenodd" clip-rule="evenodd" d="M68 19C68 19.6743 68 20.3288 68 21C50.9914 21 34.0118 21 17 21C17 20.3317 17 19.6772 17 19C33.9819 19 50.9615 19 68 19Z" fill="black"/>
<path d="M3 0.703999L11.91 0.924L11.91 1.76L4.177 3.52L11.91 5.313L11.91 6.149L3 6.369L3 5.676L10.095 5.5L3 3.795L3 3.256L10.084 1.573L3 1.397L3 0.703999ZM2.901 9.82936C2.901 9.43336 2.978 9.10703 3.132 8.85036C3.29333 8.60103 3.55733 8.41403 3.924 8.28936C4.29067 8.17203 4.77833 8.11336 5.387 8.11336L6.993 8.11336C7.62367 8.11336 8.115 8.17569 8.467 8.30036C8.82633 8.42503 9.07933 8.61569 9.226 8.87236C9.38 9.12903 9.457 9.45169 9.457 9.84036C9.457 10.2877 9.36167 10.6287 9.171 10.8634C8.98033 11.098 8.69067 11.2594 8.302 11.3474C7.92067 11.4427 7.42933 11.4904 6.828 11.4904L6.256 11.4904L6.256 8.91636L5.145 8.91636C4.73433 8.91636 4.408 8.94569 4.166 9.00436C3.93133 9.07036 3.76267 9.16936 3.66 9.30136C3.55733 9.44069 3.506 9.61669 3.506 9.82936C3.506 9.99069 3.53533 10.1374 3.594 10.2694C3.66 10.4014 3.781 10.504 3.957 10.5774C4.14033 10.658 4.397 10.6984 4.727 10.6984L5.167 10.6984L5.167 11.4794L4.815 11.4794C4.23567 11.4794 3.77 11.3584 3.418 11.1164C3.07333 10.8817 2.901 10.4527 2.901 9.82936ZM6.718 8.91636L6.718 10.6984L7.246 10.6984C7.58333 10.6984 7.86933 10.68 8.104 10.6434C8.346 10.6067 8.52933 10.526 8.654 10.4014C8.786 10.284 8.852 10.0934 8.852 9.82936C8.852 9.60936 8.80433 9.42969 8.709 9.29036C8.61367 9.15836 8.44133 9.06303 8.192 9.00436C7.95 8.94569 7.60167 8.91636 7.147 8.91636L6.718 8.91636ZM3 13.1242L9.358 13.1242L9.358 13.9272L8.698 13.9272C8.918 14.1325 9.09767 14.3635 9.237 14.6202C9.38367 14.8769 9.457 15.1555 9.457 15.4562C9.457 15.6689 9.402 15.8485 9.292 15.9952C9.18933 16.1419 9.03533 16.2519 8.83 16.3252C8.632 16.3985 8.39 16.4352 8.104 16.4352L3 16.4352L3 15.6322L7.928 15.6322C8.258 15.6322 8.489 15.5809 8.621 15.4782C8.76033 15.3829 8.83 15.2325 8.83 15.0272C8.83 14.8439 8.775 14.6569 8.665 14.4662C8.555 14.2755 8.412 14.0959 8.236 13.9272L3 13.9272L3 13.1242ZM2.901 19.1102C2.901 18.8975 2.956 18.7178 3.066 18.5712C3.176 18.4245 3.33 18.3108 3.528 18.2302C3.726 18.1568 3.968 18.1202 4.254 18.1202L9.358 18.1202L9.358 18.9342L4.43 18.9342C4.1 18.9342 3.869 18.9818 3.737 19.0772C3.605 19.1798 3.539 19.3338 3.539 19.5392C3.539 19.7298 3.59767 19.9205 3.715 20.1112C3.83233 20.3092 3.98267 20.4925 4.166 20.6612L9.358 20.6612L9.358 21.4642L3 21.4642L3 20.6612L3.704 20.6612C3.46933 20.4558 3.275 20.2212 3.121 19.9572C2.97433 19.6932 2.901 19.4108 2.901 19.1102Z" fill="black"/>
</svg>
