<svg width="97" height="83" viewBox="0 0 97 83" fill="none" xmlns="http://www.w3.org/2000/svg">
<path d="M25.4528 43.1229C26.0736 43.329 27.2117 43.6381 28.8672 44.0503C30.6261 44.4624 32.4368 45.2868 34.2992 46.5233C36.6789 47.7598 38.8 49.8206 40.6624 52.7058C42.6283 55.5909 43.6112 59.352 43.6112 63.9888C43.6112 69.2439 41.6453 73.6232 37.7136 77.1266C33.7819 80.63 28.712 82.5878 22.504 83C15.9856 83 10.7605 80.2694 6.8288 74.8082C2.89707 69.2439 0.6208 63.113 0 56.4153C0 56.0031 0 55.5394 0 55.0242C0 54.406 0 53.7877 0 53.1695C0.206933 44.514 2.1728 36.8374 5.8976 30.1397C9.6224 23.3389 13.6059 17.7232 17.848 13.2924C22.0901 9.06766 25.9184 5.87337 29.3328 3.7095C32.8507 1.44258 34.92 0.206083 35.5408 0L46.0944 9.11918C45.8875 9.42831 44.8528 10.0981 42.9904 11.1285C41.2315 12.1589 39.3173 13.3954 37.248 14.838C35.4891 16.1775 33.9371 17.5171 32.592 18.8566C31.2469 20.1962 30.1088 21.6387 29.1776 23.1844C28.5568 24.2148 28.0395 25.3998 27.6256 26.7393C27.2117 28.0788 26.7979 29.5214 26.384 31.067C25.9701 33.7461 25.7115 36.2706 25.608 38.6406C25.5045 40.9075 25.4528 42.5047 25.4528 43.432V43.1229ZM76.3584 43.1229C76.9792 43.329 78.1173 43.6381 79.7728 44.0503C81.4283 44.4624 83.2389 45.2868 85.2048 46.5233C87.4811 47.7598 89.5504 49.8206 91.4128 52.7058C93.3787 55.5909 94.3616 59.352 94.3616 63.9888C94.3616 69.2439 92.3957 73.6232 88.464 77.1266C84.5323 80.63 79.5141 82.5878 73.4096 83C66.8912 83 61.6661 80.2694 57.7344 74.8082C53.8027 69.2439 51.5264 63.113 50.9056 56.4153C50.9056 56.0031 50.9056 55.5394 50.9056 55.0242C50.9056 54.406 50.9056 53.7877 50.9056 53.1695C51.1125 44.514 53.0267 36.8374 56.648 30.1397C60.3728 23.3389 64.3563 17.7232 68.5984 13.2924C72.8405 9.06766 76.7205 5.87337 80.2384 3.7095C83.7563 1.44258 85.8256 0.206083 86.4464 0L97 9.11918C96.7931 9.42831 95.7584 10.0981 93.896 11.1285C92.1371 12.1589 90.1712 13.3954 87.9984 14.838C86.3429 16.1775 84.7909 17.5171 83.3424 18.8566C81.9973 20.1962 80.9109 21.6387 80.0832 23.1844C79.4624 24.2148 78.9451 25.3998 78.5312 26.7393C78.1173 28.0788 77.7035 29.5214 77.2896 31.067C76.8757 33.7461 76.6171 36.2706 76.5136 38.6406C76.4101 40.9075 76.3584 42.5047 76.3584 43.432V43.1229Z" fill="#FFF6F0"/>
</svg>
